<svg viewBox="0 0 302.732 180.199" fill="none" stroke-linecap="square" stroke-miterlimit="10" xmlns="http://www.w3.org/2000/svg"><clipPath id="a"><path d="M0 0h302.732v180.2H0V0z"/></clipPath><g clip-path="url(#a)"><path d="M0 0h302.732v180.2H0z"/><path fill="#cfe2f3" d="M7.346 26.948h75.308v32.818H7.346z" fill-rule="evenodd"/><path fill="#fff2cc" d="M56.795 61.17h184.19v82.678H56.794z" fill-rule="evenodd"/><path fill="#f4cccc" d="M87.633 26.948h176.944v32.818H87.633z" fill-rule="evenodd"/><path d="M201.995 133.118h62.582v32.819h-62.582z"/><path fill="#ffd966" d="M212.948 154.918h-1.078v-9.547h1.172v3.406q.734-.921 1.89-.921.64 0 1.203.265.579.25.938.719.375.453.578 1.11.203.656.203 1.406 0 1.78-.875 2.75-.875.968-2.11.968-1.218 0-1.921-1.015v.86zm0-3.5q0 1.234.328 1.781.563.907 1.5.907.766 0 1.328-.657.563-.672.563-2 0-1.343-.547-1.984-.531-.656-1.297-.656-.766 0-1.328.672-.547.671-.547 1.937zm5.897.047q0-1.922 1.078-2.844.89-.765 2.172-.765 1.422 0 2.328.937.906.922.906 2.578 0 1.328-.406 2.094-.39.766-1.156 1.187-.766.422-1.672.422-1.453 0-2.36-.922-.89-.937-.89-2.687zm1.203 0q0 1.328.578 1.984.594.657 1.469.657.875 0 1.453-.657.578-.672.578-2.03 0-1.282-.594-1.938-.578-.657-1.437-.657-.875 0-1.469.657-.578.656-.578 1.984zm11.131 3.453v-.875q-.656 1.031-1.937 1.031-.813 0-1.516-.453-.688-.453-1.078-1.265-.375-.829-.375-1.891 0-1.031.344-1.875.343-.844 1.03-1.281.704-.453 1.548-.453.625 0 1.11.265.5.25.796.672v-3.422h1.172v9.547h-1.094zm-3.703-3.453q0 1.328.562 1.984.563.657 1.329.657.765 0 1.296-.625.532-.625.532-1.907 0-1.422-.547-2.078-.547-.672-1.344-.672-.781 0-1.312.641-.516.625-.516 2zm6.584 6.11l-.125-1.094q.375.109.657.109.39 0 .625-.14.234-.126.39-.36.11-.172.36-.875.03-.094.109-.281l-2.625-6.922h1.266l1.437 4q.281.765.5 1.594.203-.797.469-1.579l1.484-4.015h1.172l-2.625 7.015q-.422 1.141-.656 1.579-.313.578-.719.843-.406.282-.969.282-.328 0-.75-.157z"/><path d="M226.189 1.38h62.583V34.2h-62.583z"/><path fill="#e06666" d="M236.064 23.18v-9.546h1.172v3.422q.828-.938 2.078-.938.766 0 1.328.297.563.297.813.844.25.531.25 1.547v4.375h-1.172v-4.375q0-.891-.39-1.282-.376-.406-1.079-.406-.516 0-.984.281-.454.266-.657.735-.187.453-.187 1.265v3.782h-1.172zm12.147-2.218l1.203.14q-.281 1.063-1.063 1.657-.765.578-1.968.578-1.516 0-2.407-.938-.89-.937-.89-2.609 0-1.75.89-2.703.907-.969 2.344-.969 1.39 0 2.266.938.875.937.875 2.656v.312h-5.156q.062 1.141.64 1.75.578.594 1.438.594.656 0 1.11-.328.452-.344.718-1.078zm-3.844-1.906h3.86q-.079-.86-.438-1.297-.563-.688-1.453-.688-.813 0-1.36.547-.546.531-.609 1.438zm11.038 3.265q-.657.563-1.266.797-.594.219-1.281.219-1.14 0-1.75-.547-.61-.563-.61-1.438 0-.5.22-.921.233-.422.608-.672.375-.25.844-.39.344-.079 1.047-.173 1.422-.172 2.094-.406v-.297q0-.719-.328-1.016-.453-.39-1.344-.39-.813 0-1.219.297-.39.281-.578 1.015l-1.14-.156q.156-.734.515-1.187.36-.454 1.031-.688.672-.25 1.563-.25.89 0 1.437.203.563.203.813.531.265.313.375.797.047.297.047 1.078v1.563q0 1.625.078 2.062.078.438.297.829h-1.22q-.187-.36-.233-.86zm-.094-2.61q-.64.266-1.922.438-.719.11-1.016.25-.297.125-.468.375-.157.25-.157.547 0 .469.344.781.36.313 1.047.313.672 0 1.203-.297t.781-.812q.188-.391.188-1.172v-.422zm7.475 3.47v-.875q-.656 1.03-1.938 1.03-.812 0-1.515-.452-.688-.453-1.078-1.266-.375-.828-.375-1.89 0-1.032.343-1.876.344-.843 1.032-1.28.703-.454 1.546-.454.625 0 1.11.266.5.25.797.672v-3.422h1.172v9.547h-1.094zm-3.703-3.454q0 1.329.562 1.985.563.656 1.328.656.766 0 1.297-.625.531-.625.531-1.906 0-1.422-.546-2.078-.547-.672-1.344-.672-.781 0-1.313.64-.515.625-.515 2z"/><path d="M0 0h62.583v32.819H0z"/><path fill="#6d9eeb" d="M12.438 20.753l.171 1.031q-.5.11-.89.11-.64 0-1-.203-.344-.204-.485-.532-.14-.328-.14-1.39V15.8h-.86v-.906h.86v-1.719l1.172-.703v2.422h1.171v.906h-1.171v4.047q0 .5.046.64.063.141.204.235.14.078.406.078.203 0 .515-.047zm5.656.188q-.657.562-1.266.796-.594.22-1.281.22-1.14 0-1.75-.548-.61-.562-.61-1.437 0-.5.22-.922.233-.422.608-.672.375-.25.844-.39.344-.079 1.047-.172 1.422-.172 2.094-.407v-.297q0-.718-.328-1.015-.453-.39-1.344-.39-.813 0-1.219.296-.39.281-.578 1.016l-1.14-.157q.156-.734.515-1.187.36-.453 1.031-.688.672-.25 1.563-.25.89 0 1.437.204.563.203.813.53.265.313.375.798.047.297.047 1.078v1.562q0 1.625.078 2.063.078.437.297.828h-1.219q-.188-.36-.234-.86zM18 18.33q-.64.266-1.922.438-.719.11-1.016.25-.297.125-.468.375-.157.25-.157.547 0 .468.344.78.36.313 1.047.313.672 0 1.203-.297.531-.296.781-.812.188-.39.188-1.172v-.422zm2.772 4.047l1.14.156q.078.532.407.782.437.312 1.187.312.813 0 1.25-.328.453-.313.61-.906.093-.36.078-1.5-.766.906-1.907.906-1.437 0-2.218-1.031-.782-1.032-.782-2.469 0-.984.36-1.813.36-.843 1.031-1.296.687-.454 1.61-.454 1.218 0 2.015.985v-.828h1.078v5.968q0 1.61-.328 2.282-.328.687-1.047 1.078-.703.39-1.75.39-1.234 0-2-.562-.75-.563-.734-1.672zm.984-4.156q0 1.36.531 1.984.547.625 1.36.625.797 0 1.343-.625.547-.625.547-1.953 0-1.266-.562-1.906-.563-.64-1.36-.64-.765 0-1.312.64-.547.625-.547 1.875z"/><path d="M0 18.294h390.3v176.315H0z"/><path fill="#000" d="M21.078 46.037h-2.625l-.422 4.297h-1.734l.422-4.297h-2.985l-.437 4.297h-1.735L12 46.037H9.5v-1.531h2.656l.422-4.094H10.11v-1.531h2.625l.391-3.86h1.719l-.39 3.86h3l.39-3.86h1.734l-.406 3.86h2.515v1.531h-2.671l-.407 4.094h2.47v1.531zm-4.187-1.531l.406-4.094h-3l-.406 4.094h3zm11.195-9.063h-3.484v-1.672h5.546v14.86h3.5v1.703h-9.437v-1.703h3.875V35.443zm13.195 4.813h-3.484v-1.688h5.547v10.063h3.5v1.703h-9.438v-1.703h3.875v-8.375zm.703-6.625q.344 0 .641.125.297.125.5.344.219.218.344.515.125.281.125.625 0 .328-.125.625-.125.281-.344.516-.203.219-.5.344-.297.125-.64.125-.329 0-.626-.125t-.515-.344q-.219-.235-.344-.516-.11-.297-.11-.625 0-.344.11-.625.125-.297.344-.515.218-.22.515-.344.297-.125.625-.125zm17.79 13.484q0 .625-.22 1.125-.202.485-.562.875-.36.375-.844.64-.484.266-1.03.454-.532.172-1.11.25-.578.094-1.125.094-1.203 0-2.203-.11-1-.109-1.953-.343v-1.875q1.03.296 2.046.453 1.016.14 2.032.14 1.453 0 2.156-.39.703-.407.703-1.14 0-.313-.11-.563-.109-.266-.406-.485-.28-.234-.906-.469-.61-.25-1.672-.578-.797-.234-1.484-.53-.672-.298-1.172-.704-.484-.406-.766-.953-.28-.563-.28-1.313 0-.484.234-1.062.234-.594.78-1.094.548-.516 1.485-.844.938-.343 2.344-.343.687 0 1.531.078.844.078 1.766.265v1.813q-.969-.235-1.828-.344-.86-.11-1.485-.11-.765 0-1.297.126-.515.11-.843.312-.313.203-.453.485-.141.28-.141.593 0 .313.125.578.125.25.453.5.328.235.922.485.61.234 1.562.515 1.047.297 1.766.641.719.328 1.156.734.453.407.64.922.188.516.188 1.172zm13.367 3.047q-.688.188-1.438.266-.734.078-1.5.078-2.203 0-3.297-1-1.094-1.016-1.094-3.094v-6.14h-3.296v-1.704h3.296v-3.234l2.047-.531v3.765h5.282v1.703h-5.282v5.985q0 1.265.672 1.89t1.985.625q.562 0 1.218-.078.672-.093 1.407-.28v1.75zm26.718-3.984q0 1.093-.453 1.922-.437.812-1.234 1.359-.797.547-1.922.828-1.11.266-2.469.266-.61 0-1.219-.047-.593-.047-1.156-.125-.547-.078-1.047-.172-.484-.094-.89-.188v-2.015q.89.328 1.984.515 1.094.188 2.484.188 1.016 0 1.72-.156.702-.172 1.155-.469.454-.313.657-.75.203-.453.203-1.031 0-.625-.344-1.063-.344-.437-.906-.781-.563-.344-1.281-.625-.72-.297-1.47-.594-.75-.312-1.468-.672-.719-.359-1.281-.843-.563-.485-.922-1.141-.344-.656-.344-1.563 0-.78.328-1.546T91 36.13q.703-.594 1.781-.953 1.094-.375 2.594-.375.375 0 .828.047.453.03.906.093.47.063.922.141.453.078.844.172v1.875q-.906-.25-1.813-.375-.89-.14-1.734-.14-1.797 0-2.64.593-.844.594-.844 1.61 0 .609.343 1.062.344.437.907.797.562.343 1.281.64.719.282 1.469.594.75.297 1.468.672.735.36 1.297.86.563.484.907 1.156.343.671.343 1.578zm12.836 4.156h-2.03v-7.516q0-1.359-.517-2.03-.5-.673-1.453-.673-.406 0-.765.11-.36.109-.75.39-.39.266-.844.735-.453.468-1.047 1.171v7.813h-2.047V33.771h2.047v4.797l-.078 1.844q.484-.562.937-.953.47-.406.922-.64.47-.25.953-.36.485-.11 1-.11 1.75 0 2.704 1.079.968 1.078.968 3.234v7.672zm13.992-5.984q0 1.375-.39 2.515-.39 1.14-1.125 1.969-.719.812-1.766 1.266-1.031.453-2.36.453-1.265 0-2.265-.39-1-.407-1.703-1.157-.703-.766-1.078-1.89-.36-1.126-.36-2.595 0-1.375.391-2.5.39-1.14 1.11-1.953.734-.812 1.765-1.265 1.047-.453 2.375-.453 1.266 0 2.266.406 1 .39 1.687 1.14.703.75 1.078 1.875.375 1.125.375 2.579zm-2.093.093q0-1.078-.25-1.89-.235-.828-.688-1.36-.437-.547-1.078-.828-.625-.281-1.422-.281-.906 0-1.562.36-.64.359-1.063.968-.422.594-.61 1.39-.187.782-.187 1.641 0 1.094.235 1.922.234.813.672 1.36.453.546 1.078.828.64.265 1.437.265.922 0 1.563-.359.656-.36 1.062-.953.422-.594.61-1.375.203-.797.203-1.688zm15.101-.203q0 1.563-.453 2.735-.437 1.171-1.219 1.953-.765.765-1.828 1.156-1.047.39-2.265.39-.563 0-1.125-.062-.563-.047-1.125-.203v4.937h-2.047V38.568h1.812l.14 1.97q.876-1.204 1.86-1.688 1-.5 2.172-.5 1 0 1.766.421.765.422 1.281 1.204.516.765.766 1.843.265 1.078.265 2.422zm-2.093.094q0-.922-.141-1.688-.125-.78-.422-1.328-.297-.562-.75-.875-.453-.312-1.094-.312-.375 0-.78.125-.392.125-.83.422-.42.281-.905.765-.47.47-1 1.172v5.703q.562.235 1.172.375.625.125 1.218.125 1.657 0 2.594-1.109.938-1.125.938-3.375zm15.289-.094q0 1.563-.454 2.735-.437 1.171-1.218 1.953-.766.765-1.828 1.156-1.047.39-2.266.39-.563 0-1.125-.062-.563-.047-1.125-.203v4.937h-2.047V38.568h1.813l.14 1.97q.875-1.204 1.86-1.688 1-.5 2.171-.5 1 0 1.766.421.766.422 1.281 1.204.516.765.766 1.843.266 1.078.266 2.422zm-2.094.094q0-.922-.14-1.688-.126-.78-.423-1.328-.297-.562-.75-.875-.453-.312-1.093-.312-.375 0-.782.125-.39.125-.828.422-.422.281-.906.765-.469.47-1 1.172v5.703q.562.235 1.172.375.625.125 1.219.125 1.656 0 2.593-1.109.938-1.125.938-3.375zm9.242-4.078h-3.484v-1.688h5.547v10.063h3.5v1.703h-9.438v-1.703h3.875v-8.375zm.703-6.625q.344 0 .64.125.298.125.5.344.22.218.345.515.125.281.125.625 0 .328-.125.625-.125.281-.344.516-.203.219-.5.344-.297.125-.64.125-.329 0-.626-.125t-.515-.344q-.22-.235-.344-.516-.11-.297-.11-.625 0-.344.11-.625.125-.297.344-.515.218-.22.515-.344.297-.125.625-.125zm8.477 4.937h1.812l.094 1.891q.516-.61.984-1 .485-.406.938-.656.469-.25.953-.344.484-.11 1-.11 1.812 0 2.734 1.079.938 1.078.938 3.234v7.672h-2.031v-7.516q0-1.375-.516-2.03-.516-.673-1.531-.673-.375 0-.735.11-.359.109-.75.39-.39.266-.843.735-.438.468-1 1.171v7.813h-2.047V38.568zm21.664 1.657q.328.421.515.968.188.532.188 1.172 0 .906-.344 1.672-.328.75-.937 1.297-.61.531-1.47.828-.843.297-1.858.297-.735 0-1.391-.156-.64-.157-1.016-.39-.218.327-.375.624-.156.297-.156.656 0 .438.422.735.437.297 1.14.312l3.094.125q.875.016 1.625.219t1.282.578q.53.375.828.938.297.546.297 1.265 0 .781-.344 1.485-.328.703-1.047 1.234-.703.547-1.797.86-1.094.312-2.594.312-1.422 0-2.422-.235-1-.218-1.656-.625-.64-.406-.937-.968-.282-.547-.282-1.219 0-.86.391-1.5.406-.64 1.234-1.25-.312-.14-.53-.344-.22-.219-.36-.469-.14-.25-.219-.53-.062-.282-.062-.548 0-.765.359-1.39.36-.64.844-1.203-.22-.266-.39-.516-.173-.266-.298-.563-.125-.296-.187-.64-.063-.36-.063-.797 0-.922.328-1.672.344-.75.938-1.281.61-.547 1.453-.844.86-.312 1.89-.312.438 0 .829.062.406.063.703.156h4.265v1.657h-1.89zm-7.078 11.812q0 .828.86 1.203.874.39 2.42.39.985 0 1.642-.187.656-.172 1.062-.453t.578-.656q.188-.375.188-.75 0-.719-.594-1.063-.578-.343-1.797-.406l-3.062-.094q-.391.25-.641.5t-.39.5q-.141.25-.204.5-.062.25-.062.516zm.625-9.625q0 .563.187 1.031.188.47.531.797.344.328.797.516.47.172 1.032.172.609 0 1.078-.203.484-.204.797-.547.328-.36.5-.813.171-.469.171-.953 0-.562-.187-1.031-.188-.469-.531-.797-.344-.328-.813-.5-.453-.188-1.015-.188-.61 0-1.094.22-.469.202-.797.546-.313.344-.484.797-.172.453-.172.953zm28.39-6.969h-3.484v-1.672h5.547v14.86h3.5v1.703h-9.438v-1.703h3.875V35.443zm13.196 4.813h-3.485v-1.688h5.547v10.063h3.5v1.703h-9.437v-1.703h3.875v-8.375zm.703-6.625q.343 0 .64.125t.5.344q.22.218.344.515.125.281.125.625 0 .328-.125.625-.125.281-.344.516-.203.219-.5.344-.297.125-.64.125-.328 0-.625-.125t-.516-.344q-.219-.235-.344-.516-.109-.297-.109-.625 0-.344.11-.625.124-.297.343-.515.219-.22.516-.344.297-.125.625-.125zm17.789 13.484q0 .625-.219 1.125-.203.485-.562.875-.36.375-.844.64-.485.266-1.031.454-.532.172-1.11.25-.578.094-1.125.094-1.203 0-2.203-.11-1-.109-1.953-.343v-1.875q1.031.296 2.047.453 1.015.14 2.031.14 1.453 0 2.156-.39.703-.407.703-1.14 0-.313-.109-.563-.11-.266-.406-.485-.281-.234-.906-.469-.61-.25-1.672-.578-.797-.234-1.485-.53-.672-.298-1.172-.704-.484-.406-.765-.953-.281-.563-.281-1.313 0-.484.234-1.062.234-.594.781-1.094.547-.516 1.485-.844.937-.343 2.343-.343.688 0 1.532.078.843.078 1.765.265v1.813q-.969-.235-1.828-.344-.86-.11-1.484-.11-.766 0-1.297.126-.516.11-.844.312-.312.203-.453.485-.14.28-.14.593 0 .313.124.578.125.25.453.5.329.235.922.485.61.234 1.563.515 1.047.297 1.765.641.72.328 1.157.734.453.407.64.922.188.516.188 1.172zm13.367 3.047q-.688.188-1.438.266-.734.078-1.5.078-2.203 0-3.296-1-1.094-1.016-1.094-3.094v-6.14h-3.297v-1.704h3.297v-3.234l2.047-.531v3.765h5.281v1.703h-5.281v5.985q0 1.265.672 1.89.671.625 1.984.625.562 0 1.219-.078.672-.093 1.406-.28v1.75zM73.86 75.037h-2.626l-.421 4.297h-1.735l.422-4.297h-2.984l-.438 4.297h-1.734l.437-4.297h-2.5v-1.531h2.657l.421-4.094h-2.468v-1.531h2.625l.39-3.86h1.719l-.39 3.86h3l.39-3.86h1.734l-.406 3.86h2.516v1.531h-2.672l-.406 4.094h2.468v1.531zm-4.188-1.531l.406-4.094h-3l-.406 4.094h3zm11.195-4.25h-3.484v-1.688h5.547v10.063h3.5v1.703h-9.438v-1.703h3.875v-8.375zm.703-6.625q.344 0 .64.125.298.125.5.344.22.218.345.515.125.281.125.625 0 .328-.125.625-.125.281-.344.516-.203.219-.5.344-.297.125-.64.125-.329 0-.626-.125t-.515-.344q-.22-.235-.344-.516-.11-.297-.11-.625 0-.344.11-.625.125-.297.344-.515.218-.22.515-.344.297-.125.625-.125zm17.961 16.531q-.687.188-1.437.266-.735.078-1.5.078-2.203 0-3.297-1-1.094-1.016-1.094-3.094v-6.14h-3.297v-1.704h3.297v-3.234l2.047-.531v3.765h5.281v1.703H94.25v5.985q0 1.265.672 1.89t1.984.625q.563 0 1.219-.078.672-.093 1.406-.28v1.75zm13.649-6.328q0 .422-.016.719 0 .297-.031.547h-8.266q0 1.812 1 2.78 1.016.97 2.922.97.516 0 1.031-.047.516-.047.985-.11.484-.078.922-.156.453-.094.828-.203v1.687q-.844.235-1.89.375-1.048.157-2.173.157-1.515 0-2.61-.407-1.077-.421-1.78-1.203-.688-.78-1.032-1.906-.328-1.14-.328-2.562 0-1.25.36-2.344.359-1.11 1.03-1.953.688-.844 1.688-1.328 1-.5 2.266-.5 1.234 0 2.172.39.953.39 1.594 1.11.656.703.984 1.718.344 1 .344 2.266zm-2.125-.297q.047-.781-.14-1.437-.188-.657-.595-1.125-.39-.47-.984-.72-.578-.265-1.344-.265-.672 0-1.219.266-.546.25-.953.719-.39.468-.64 1.125-.25.656-.313 1.437h6.188zm13.773 6.797v-8.453q0-.547-.047-.89-.031-.36-.125-.563-.078-.203-.218-.282-.141-.093-.329-.093-.234 0-.437.14-.203.141-.438.47-.218.312-.5.827-.265.516-.64 1.281v7.563h-1.875V71.1q0-.641-.047-1.032-.031-.406-.125-.625-.078-.218-.219-.297-.14-.093-.344-.093-.203 0-.39.125-.188.11-.422.422-.234.296-.516.828-.281.531-.656 1.343v7.563h-1.875V67.568h1.547l.094 2.235q.312-.672.593-1.14.297-.47.594-.75.313-.282.656-.423.344-.14.766-.14.953 0 1.438.625.5.625.5 1.921.28-.609.546-1.078.266-.484.579-.797.312-.328.687-.5.375-.171.86-.171 2.218 0 2.218 3.421v8.563h-1.875zm29.203 0h-2.265l-1.078-3.344h-6.375l-1.079 3.344h-2.156l5.078-15.313h2.86l5.015 15.313zm-3.937-5.203l-2.594-8.188-2.578 8.188h5.172zm15.992-.89q0 1.562-.453 2.734-.438 1.171-1.219 1.953-.766.765-1.828 1.156-1.047.39-2.266.39-.562 0-1.125-.062-.562-.047-1.125-.203v4.937h-2.047V67.568h1.813l.14 1.97q.876-1.204 1.86-1.688 1-.5 2.172-.5 1 0 1.765.421.766.422 1.282 1.204.515.765.765 1.843.266 1.078.266 2.422zm-2.094.093q0-.922-.14-1.688-.125-.78-.422-1.328-.297-.562-.75-.875-.453-.312-1.094-.312-.375 0-.781.125-.39.125-.828.422-.422.281-.907.765-.468.47-1 1.172v5.703q.563.235 1.172.375.625.125 1.219.125 1.656 0 2.594-1.109.937-1.125.937-3.375zm15.29-.094q0 1.563-.454 2.735-.437 1.171-1.219 1.953-.765.765-1.828 1.156-1.047.39-2.265.39-.563 0-1.125-.062-.563-.047-1.125-.203v4.937h-2.047V67.568h1.812l.14 1.97q.876-1.204 1.86-1.688 1-.5 2.172-.5 1 0 1.766.421.765.422 1.281 1.204.516.765.766 1.843.265 1.078.265 2.422zm-2.094.094q0-.922-.141-1.688-.125-.78-.422-1.328-.297-.562-.75-.875-.453-.312-1.094-.312-.375 0-.781.125-.39.125-.828.422-.422.281-.906.765-.47.47-1 1.172v5.703q.562.235 1.172.375.625.125 1.218.125 1.657 0 2.594-1.109.938-1.125.938-3.375zm9.242-8.89h-3.485V62.77h5.547v14.86h3.5v1.703h-9.437V77.63h3.875V64.443zm19.117 8.39q0 .422-.016.719 0 .297-.031.547h-8.266q0 1.812 1 2.78 1.016.97 2.922.97.516 0 1.032-.047.515-.047.984-.11.484-.078.922-.156.453-.094.828-.203v1.687q-.844.235-1.89.375-1.048.157-2.173.157-1.515 0-2.609-.407-1.078-.421-1.781-1.203-.688-.78-1.031-1.906-.329-1.14-.329-2.562 0-1.25.36-2.344.36-1.11 1.031-1.953.688-.844 1.688-1.328 1-.5 2.265-.5 1.235 0 2.172.39.953.39 1.594 1.11.656.703.984 1.718.344 1 .344 2.266zm-2.125-.297q.047-.781-.14-1.437-.188-.657-.594-1.125-.391-.47-.985-.72-.578-.265-1.344-.265-.671 0-1.218.266-.547.25-.953.719-.391.468-.641 1.125-.25.656-.313 1.437h6.188zm14.695 3.578q0 .625-.219 1.125-.203.485-.562.875-.36.375-.844.64-.484.266-1.031.454-.531.172-1.11.25-.578.094-1.124.094-1.204 0-2.204-.11-1-.109-1.953-.343v-1.875q1.032.296 2.047.453 1.016.14 2.031.14 1.454 0 2.157-.39.703-.407.703-1.14 0-.313-.11-.563-.109-.266-.406-.485-.281-.234-.906-.469-.61-.25-1.672-.578-.797-.234-1.484-.53-.672-.298-1.172-.704-.485-.406-.766-.953-.281-.563-.281-1.313 0-.484.234-1.062.235-.594.782-1.094.546-.516 1.484-.844.937-.343 2.344-.343.687 0 1.53.078.845.078 1.767.265v1.813q-.97-.235-1.829-.344-.859-.11-1.484-.11-.766 0-1.297.126-.515.11-.844.312-.312.203-.453.485-.14.28-.14.593 0 .313.125.578.125.25.453.5.328.235.922.485.61.234 1.562.515 1.047.297 1.766.641.719.328 1.156.734.453.407.64.922.188.516.188 1.172zM73.86 104.037h-2.626l-.421 4.297h-1.735l.422-4.297h-2.984l-.438 4.297h-1.734l.437-4.297h-2.5v-1.531h2.657l.421-4.094h-2.468v-1.531h2.625l.39-3.86h1.719l-.39 3.86h3l.39-3.86h1.734l-.406 3.86h2.516v1.531h-2.672l-.406 4.094h2.468v1.531zm-4.188-1.531l.406-4.094h-3l-.406 4.094h3zm11.195-4.25h-3.484v-1.688h5.547v10.063h3.5v1.703h-9.438v-1.703h3.875v-8.375zm.703-6.625q.344 0 .64.125.298.125.5.344.22.218.345.515.125.281.125.625 0 .328-.125.625-.125.281-.344.516-.203.219-.5.344-.297.125-.64.125-.329 0-.626-.125t-.515-.344q-.22-.235-.344-.516-.11-.297-.11-.625 0-.344.11-.625.125-.297.344-.515.218-.22.515-.344.297-.125.625-.125zm17.961 16.531q-.687.188-1.437.266-.735.078-1.5.078-2.203 0-3.297-1-1.094-1.016-1.094-3.094v-6.14h-3.297v-1.704h3.297v-3.234l2.047-.531v3.765h5.281v1.703H94.25v5.985q0 1.265.672 1.89t1.984.625q.563 0 1.219-.078.672-.093 1.406-.28v1.75zm13.649-6.328q0 .422-.016.719 0 .297-.031.547h-8.266q0 1.812 1 2.78 1.016.97 2.922.97.516 0 1.031-.047.516-.047.985-.11.484-.078.922-.156.453-.094.828-.203v1.687q-.844.235-1.89.375-1.048.157-2.173.157-1.515 0-2.61-.407-1.077-.421-1.78-1.203-.688-.78-1.032-1.906-.328-1.14-.328-2.562 0-1.25.36-2.344.359-1.11 1.03-1.953.688-.844 1.688-1.328 1-.5 2.266-.5 1.234 0 2.172.39.953.39 1.594 1.11.656.703.984 1.718.344 1 .344 2.266zm-2.125-.297q.047-.781-.14-1.437-.188-.657-.595-1.125-.39-.47-.984-.72-.578-.265-1.344-.265-.672 0-1.219.266-.546.25-.953.719-.39.468-.64 1.125-.25.656-.313 1.437h6.188zm13.773 6.797v-8.453q0-.547-.047-.89-.031-.36-.125-.563-.078-.203-.218-.282-.141-.093-.329-.093-.234 0-.437.14-.203.141-.438.47-.218.312-.5.827-.265.516-.64 1.281v7.563h-1.875V100.1q0-.641-.047-1.032-.031-.406-.125-.625-.078-.218-.219-.297-.14-.093-.344-.093-.203 0-.39.125-.188.11-.422.422-.234.296-.516.828-.281.531-.656 1.343v7.563h-1.875V96.568h1.547l.094 2.235q.312-.672.593-1.14.297-.47.594-.75.313-.282.656-.423.344-.14.766-.14.953 0 1.438.625.5.625.5 1.921.28-.609.546-1.078.266-.484.579-.797.312-.328.687-.5.375-.171.86-.171 2.218 0 2.218 3.421v8.563h-1.875zm28.031-4.578q0 1.094-.437 1.953-.422.844-1.219 1.437-.781.579-1.906.891-1.11.297-2.484.297h-4V93.021h4.375q5.125 0 5.125 3.72 0 1.25-.594 2.14-.594.89-1.922 1.312.61.125 1.172.407.562.28.984.734.422.437.656 1.047.25.61.25 1.375zm-2.718-6.735q0-.468-.141-.875-.14-.421-.5-.718-.344-.297-.937-.469-.594-.188-1.516-.188h-2.156v4.797h2.093q.704 0 1.282-.156.593-.156 1-.469.422-.312.64-.78.235-.485.235-1.142zm.5 6.797q0-.578-.25-1.047-.235-.468-.703-.796-.47-.329-1.141-.5-.672-.172-1.516-.172h-2.14v5.265h2.203q1.797 0 2.672-.656.875-.672.875-2.094zm12.945 4.516l-.047-1.578q-.969.937-1.953 1.375-.984.422-2.078.422-1.016 0-1.735-.266-.703-.266-1.171-.703-.454-.453-.672-1.063-.22-.609-.22-1.328 0-1.765 1.313-2.765 1.329-1.016 3.907-1.016h2.437v-1.031q0-1.031-.672-1.656-.672-.641-2.047-.641-.984 0-1.953.234-.968.22-2 .625V97.1q.39-.141.86-.266.468-.14 1-.234.53-.11 1.093-.172.579-.078 1.172-.078 1.063 0 1.922.234.86.234 1.438.719.593.484.906 1.218.328.72.328 1.704v8.109h-1.828zm-.219-5.36h-2.594q-.765 0-1.312.157-.547.156-.906.437-.344.282-.516.672-.172.39-.172.875 0 .344.094.656.11.313.344.563.234.234.61.375.374.14.92.14.704 0 1.61-.421.907-.438 1.922-1.36v-2.093zm5.852-6.406h1.812l.094 1.891q.516-.61.984-1 .485-.406.938-.656.469-.25.953-.344.484-.11 1-.11 1.813 0 2.734 1.079.938 1.078.938 3.234v7.672h-2.031v-7.516q0-1.375-.516-2.03-.516-.673-1.531-.673-.375 0-.735.11-.359.109-.75.39-.39.266-.843.735-.438.468-1 1.171v7.813h-2.047V96.568zm20.758 11.766l-.047-1.578q-.97.937-1.953 1.375-.985.422-2.079.422-1.015 0-1.734-.266-.703-.266-1.172-.703-.453-.453-.672-1.063-.218-.609-.218-1.328 0-1.765 1.312-2.765 1.328-1.016 3.906-1.016h2.438v-1.031q0-1.031-.672-1.656-.672-.641-2.047-.641-.984 0-1.953.234-.969.22-2 .625V97.1q.39-.141.86-.266.468-.14 1-.234.53-.11 1.093-.172.578-.078 1.172-.078 1.062 0 1.922.234.86.234 1.437.719.594.484.907 1.218.328.72.328 1.704v8.109h-1.828zm-.22-5.36h-2.593q-.766 0-1.312.157-.547.156-.907.437-.343.282-.515.672-.172.39-.172.875 0 .344.094.656.109.313.343.563.235.234.61.375.375.14.922.14.703 0 1.609-.421.906-.438 1.922-1.36v-2.093zm5.852-6.406h1.813l.094 1.891q.515-.61.984-1 .484-.406.938-.656.468-.25.953-.344.484-.11 1-.11 1.812 0 2.734 1.079.938 1.078.938 3.234v7.672h-2.032v-7.516q0-1.375-.515-2.03-.516-.673-1.532-.673-.375 0-.734.11-.36.109-.75.39-.39.266-.844.735-.437.468-1 1.171v7.813h-2.047V96.568zm20.758 11.766l-.047-1.578q-.968.937-1.953 1.375-.984.422-2.078.422-1.016 0-1.734-.266-.703-.266-1.172-.703-.453-.453-.672-1.063-.219-.609-.219-1.328 0-1.765 1.313-2.765 1.328-1.016 3.906-1.016h2.437v-1.031q0-1.031-.671-1.656-.672-.641-2.047-.641-.985 0-1.953.234-.97.22-2 .625V97.1q.39-.141.859-.266.469-.14 1-.234.531-.11 1.094-.172.578-.078 1.172-.078 1.062 0 1.921.234.86.234 1.438.719.594.484.906 1.218.328.72.328 1.704v8.109h-1.828zm-.219-5.36h-2.593q-.766 0-1.313.157-.547.156-.906.437-.344.282-.516.672-.172.39-.172.875 0 .344.094.656.11.313.344.563.234.234.61.375.374.14.921.14.703 0 1.61-.421.906-.438 1.921-1.36v-2.093zm15.164 2.141q0 .625-.218 1.125-.203.485-.563.875-.36.375-.844.64-.484.266-1.03.454-.532.172-1.11.25-.578.094-1.125.094-1.203 0-2.203-.11-1-.109-1.953-.343v-1.875q1.03.296 2.046.453 1.016.14 2.032.14 1.453 0 2.156-.39.703-.407.703-1.14 0-.313-.11-.563-.109-.266-.406-.485-.28-.234-.906-.469-.61-.25-1.672-.578-.797-.234-1.484-.53-.672-.298-1.172-.704-.484-.406-.766-.953-.28-.563-.28-1.313 0-.484.234-1.062.234-.594.78-1.094.548-.516 1.485-.844.938-.343 2.344-.343.687 0 1.531.078.844.078 1.766.265v1.813q-.969-.235-1.828-.344-.86-.11-1.485-.11-.765 0-1.297.126-.515.11-.843.312-.313.203-.453.485-.141.28-.141.593 0 .313.125.578.125.25.453.5.328.235.922.485.61.234 1.562.515 1.047.297 1.766.641.719.328 1.156.734.453.407.641.922.187.516.187 1.172zM73.86 133.037h-2.626l-.421 4.297h-1.735l.422-4.297h-2.984l-.438 4.297h-1.734l.437-4.297h-2.5v-1.531h2.657l.421-4.094h-2.468v-1.531h2.625l.39-3.86h1.719l-.39 3.86h3l.39-3.86h1.734l-.406 3.86h2.516v1.531h-2.672l-.406 4.094h2.468v1.531zm-4.188-1.531l.406-4.094h-3l-.406 4.094h3zm11.195-4.25h-3.484v-1.688h5.547v10.063h3.5v1.703h-9.438v-1.703h3.875v-8.375zm.703-6.625q.344 0 .64.125.298.125.5.344.22.218.345.515.125.281.125.625 0 .328-.125.625-.125.281-.344.516-.203.219-.5.344-.297.125-.64.125-.329 0-.626-.125t-.515-.344q-.22-.235-.344-.516-.11-.297-.11-.625 0-.344.11-.625.125-.297.344-.515.218-.22.515-.344.297-.125.625-.125zm17.961 16.531q-.687.188-1.437.266-.735.078-1.5.078-2.203 0-3.297-1-1.094-1.016-1.094-3.094v-6.14h-3.297v-1.704h3.297v-3.234l2.047-.531v3.765h5.281v1.703H94.25v5.985q0 1.265.672 1.89t1.984.625q.563 0 1.219-.078.672-.093 1.406-.28v1.75zm13.649-6.328q0 .422-.016.719 0 .297-.031.547h-8.266q0 1.812 1 2.78 1.016.97 2.922.97.516 0 1.031-.047.516-.047.985-.11.484-.078.922-.156.453-.094.828-.203v1.687q-.844.235-1.89.375-1.048.157-2.173.157-1.515 0-2.61-.407-1.077-.421-1.78-1.203-.688-.78-1.032-1.906-.328-1.14-.328-2.562 0-1.25.36-2.344.359-1.11 1.03-1.953.688-.844 1.688-1.328 1-.5 2.266-.5 1.234 0 2.172.39.953.39 1.594 1.11.656.703.984 1.718.344 1 .344 2.266zm-2.125-.297q.047-.781-.14-1.437-.188-.657-.595-1.125-.39-.47-.984-.72-.578-.265-1.344-.265-.672 0-1.219.266-.546.25-.953.719-.39.468-.64 1.125-.25.656-.313 1.437h6.188zm13.773 6.797v-8.453q0-.547-.047-.89-.031-.36-.125-.563-.078-.203-.218-.282-.141-.093-.329-.093-.234 0-.437.14-.203.141-.438.47-.218.312-.5.827-.265.516-.64 1.281v7.563h-1.875V129.1q0-.641-.047-1.032-.031-.406-.125-.625-.078-.218-.219-.297-.14-.093-.344-.093-.203 0-.39.125-.188.11-.422.422-.234.296-.516.828-.281.531-.656 1.343v7.563h-1.875v-11.766h1.547l.094 2.235q.312-.672.593-1.14.297-.47.594-.75.313-.282.656-.423.344-.14.766-.14.953 0 1.438.625.5.625.5 1.921.28-.609.546-1.078.266-.484.579-.797.312-.328.687-.5.375-.171.86-.171 2.218 0 2.218 3.421v8.563h-1.875zm27.781-.578q-1.828.765-3.843.765-3.25 0-5-1.937-1.735-1.938-1.735-5.734 0-1.844.485-3.329.484-1.5 1.375-2.53.89-1.032 2.156-1.595 1.266-.562 2.828-.562 1.063 0 1.969.187.922.172 1.765.547v2.047q-.828-.453-1.718-.687-.891-.25-1.938-.25-1.078 0-1.953.406t-1.484 1.172q-.61.765-.938 1.875-.328 1.11-.328 2.531 0 2.969 1.203 4.484 1.203 1.516 3.547 1.516.984 0 1.875-.234.906-.235 1.734-.64v1.968zm10.977.578l-.047-1.578q-.969.937-1.953 1.375-.984.422-2.078.422-1.016 0-1.735-.266-.703-.266-1.171-.703-.454-.453-.672-1.063-.22-.609-.22-1.328 0-1.765 1.313-2.765 1.329-1.016 3.907-1.016h2.437v-1.031q0-1.031-.672-1.656-.672-.641-2.047-.641-.984 0-1.953.234-.968.22-2 .625V126.1q.39-.141.86-.266.468-.14 1-.234.53-.11 1.093-.172.579-.078 1.172-.078 1.063 0 1.922.234.86.234 1.438.719.593.484.906 1.218.328.72.328 1.704v8.109h-1.828zm-.219-5.36h-2.594q-.765 0-1.312.157-.547.156-.906.437-.344.282-.516.672-.172.39-.172.875 0 .344.094.656.11.313.344.563.234.234.61.375.374.14.92.14.704 0 1.61-.421.907-.438 1.922-1.36v-2.093zm6.336-6.406h1.86l.062 2.172q1.047-1.265 2.047-1.828 1.016-.562 2.047-.562 1.828 0 2.765 1.187.954 1.188.891 3.516h-2.062q.03-1.547-.454-2.235-.484-.703-1.421-.703-.422 0-.844.156-.406.141-.844.47-.437.312-.937.812-.485.5-1.047 1.218v7.563h-2.063v-11.766zm13.195 0h1.86l.062 2.172q1.047-1.265 2.047-1.828 1.016-.562 2.047-.562 1.828 0 2.766 1.187.953 1.188.89 3.516h-2.062q.031-1.547-.453-2.235-.485-.703-1.422-.703-.422 0-.844.156-.406.141-.844.47-.437.312-.937.812-.485.5-1.047 1.218v7.563h-2.063v-11.766zm22.961 5.782q0 1.375-.39 2.515-.39 1.14-1.125 1.969-.719.812-1.766 1.266-1.031.453-2.36.453-1.265 0-2.265-.39-1-.407-1.703-1.157-.703-.766-1.078-1.89-.36-1.126-.36-2.595 0-1.375.391-2.5.39-1.14 1.11-1.953.734-.812 1.765-1.265 1.047-.453 2.375-.453 1.266 0 2.266.406 1 .39 1.687 1.14.703.75 1.078 1.875.375 1.125.375 2.579zm-2.093.093q0-1.078-.25-1.89-.235-.828-.688-1.36-.437-.547-1.078-.828-.625-.281-1.422-.281-.906 0-1.562.36-.641.359-1.063.968-.422.594-.61 1.39-.187.782-.187 1.641 0 1.094.235 1.922.234.813.672 1.36.453.546 1.078.828.64.265 1.437.265.922 0 1.563-.359.656-.36 1.062-.953.422-.594.61-1.375.203-.797.203-1.688zm14.523 5.72q-.687.187-1.437.265-.735.078-1.5.078-2.204 0-3.297-1-1.094-1.016-1.094-3.094v-6.14h-3.297v-1.704h3.297v-3.234l2.047-.531v3.765h5.281v1.703h-5.281v5.985q0 1.265.672 1.89t1.984.625q.563 0 1.219-.078.672-.093 1.406-.28v1.75zm13.024-3.048q0 .625-.22 1.125-.202.485-.562.875-.36.375-.843.64-.485.266-1.032.454-.531.172-1.11.25-.577.094-1.124.094-1.203 0-2.203-.11-1-.109-1.953-.343v-1.875q1.03.296 2.047.453 1.015.14 2.03.14 1.454 0 2.157-.39.703-.407.703-1.14 0-.313-.11-.563-.109-.266-.405-.485-.282-.234-.907-.469-.61-.25-1.672-.578-.796-.234-1.484-.53-.672-.298-1.172-.704-.484-.406-.765-.953-.282-.563-.282-1.313 0-.484.235-1.062.234-.594.78-1.094.548-.516 1.485-.844.938-.343 2.344-.343.688 0 1.531.078.844.078 1.766.265v1.813q-.969-.235-1.828-.344-.86-.11-1.485-.11-.765 0-1.296.126-.516.11-.844.312-.313.203-.453.485-.141.28-.141.593 0 .313.125.578.125.25.453.5.328.235.922.485.61.234 1.563.515 1.046.297 1.765.641.719.328 1.156.734.454.407.641.922.188.516.188 1.172z"/></g></svg>